<svg width="33" height="32" viewBox="0 0 33 32" fill="none" xmlns="http://www.w3.org/2000/svg">
<rect x="1.5" y="1" width="30" height="30" rx="10" stroke="#EDEDED" stroke-width="2"/>
<path d="M24 10.0069C24 10.0069 22.6242 10.8197 21.8591 11.05C21.4484 10.5779 20.9027 10.2432 20.2957 10.0913C19.6887 9.93947 19.0497 9.97767 18.4651 10.2008C17.8805 10.4239 17.3785 10.8212 17.027 11.3389C16.6756 11.8567 16.4916 12.4698 16.5 13.0955V13.7773C15.3018 13.8084 14.1145 13.5426 13.0439 13.0037C11.9732 12.4649 11.0525 11.6696 10.3636 10.6887C10.3636 10.6887 7.63636 16.8251 13.7727 19.5523C12.3685 20.5055 10.6958 20.9834 9 20.916C15.1364 24.3251 22.6364 20.916 22.6364 13.075C22.6358 12.8851 22.6175 12.6957 22.5818 12.5091C23.2777 11.8229 24 10.0069 24 10.0069Z" stroke="#EDEDED" stroke-width="2" stroke-linecap="round" stroke-linejoin="round"/>
</svg>
